<?xml version="1.0" encoding="UTF-8"?>
<svg id="Layer_1" data-name="Layer 1" xmlns="http://www.w3.org/2000/svg" viewBox="0 0 1196.44 360.89">
  <defs>
    <style>
      .cls-1 {
        fill: #408357;
      }
    </style>
  </defs>
  <g>
    <g>
      <path class="cls-1" d="m1059.18,111.24c-.15,16.39-5.71,30.57-17.02,42.12-18.64,19.05-37.51,37.87-56.5,56.58-21.09,20.77-55.16,23.32-78.76,5.58-2.9-2.18-5.7-4.67-7.99-7.48-5.7-7-5.33-16.67.51-22.86,6.03-6.39,15.75-7.2,23.23-1.95,18.58,13.05,26.92,12.5,43-3.29,16.64-16.34,33.15-32.81,49.62-49.32,11.18-11.2,11.42-26.83.78-37.41-10.39-10.33-26.05-10-37.1.91-9.96,9.83-19.89,19.69-29.66,29.7-2.98,3.05-5.73,3.29-9.8,2.19-7.49-2.02-15.3-2.87-22.9-4.54-2.69-.59-5.18-2.12-7.76-3.23,1.13-2.39,1.71-5.31,3.46-7.09,14.11-14.39,28.28-28.73,42.74-42.77,17.86-17.33,39.16-22.61,62.64-14.66,23.47,7.95,36.87,25.29,41.06,49.67.45,2.61.3,5.31.43,7.83Z"/>
      <path class="cls-1" d="m853.95,310.77c-20.35-1.01-39.45-12.83-50.19-36.73-10.1-22.46-5.27-48.64,11.96-66.24,18.77-19.16,37.66-38.21,56.86-56.93,22.73-22.16,59.37-22.57,82.64-1.38,5.47,4.98,9.1,10.75,7.14,18.51-3.3,13.08-18.31,17.74-28.9,8.81-6.89-5.81-14.43-9.45-23.34-7.05-4.79,1.29-9.94,3.58-13.44,6.95-18.69,18.05-37.01,36.49-55.26,54.99-10.31,10.46-10.01,26.68.24,36.82,9.77,9.65,25.78,9.6,36.06-.42,10.27-9.99,20.39-20.13,30.35-30.43,3.13-3.24,5.96-3.42,10.2-2.36,8.01,2,16.31,2.83,24.43,4.41,2.09.41,5,1.32,5.71,2.85.69,1.5-.29,4.71-1.64,6.07-16.05,16.21-31.97,32.59-48.64,48.15-10.69,9.98-23.92,13.96-44.19,13.96Z"/>
    </g>
    <g>
      <path d="m149.69,241.34c-2.67,0-4.77-.41-6.3-1.22-1.53-.81-2.63-2.07-3.29-3.77-.66-1.7-.99-3.86-.99-6.46s.33-4.81.99-6.53c.66-1.72,1.75-2.99,3.29-3.82,1.53-.83,3.63-1.24,6.3-1.24h9.75v20.93h-4.28v-18.58l1.75,1.52h-7.22c-1.63,0-2.9.19-3.82.57-.92.38-1.56,1.14-1.93,2.25s-.55,2.75-.55,4.9.18,3.72.55,4.81c.37,1.09,1,1.83,1.91,2.23.9.4,2.18.6,3.84.6h14.67v3.82h-14.67Zm-5.15-27.19v-4.46h4.23v4.46h-4.23Zm6.85,0v-4.46h4.23v4.46h-4.23Zm12.97,27.19v-3.82c.18,0,.34.05.46.14.12.09.21.21.28.37.06.15.11.34.14.57.03.23.05.5.05.81,0,.28-.02.54-.05.78-.03.25-.08.45-.14.62-.06.17-.15.3-.28.39-.12.09-.28.14-.46.14Z"/>
      <path d="m164.36,241.34c-.18,0-.34-.05-.46-.14-.12-.09-.21-.22-.28-.39-.06-.17-.11-.38-.14-.62-.03-.25-.05-.51-.05-.78,0-.4.02-.74.07-1.01.05-.28.14-.49.28-.64.14-.15.33-.23.58-.23v3.82Zm0,0v-3.82h7.82l-2.21,1.75v-20.98h4.28v23.05h-9.89Zm1.79,8.69v-4.46h4.23v4.46h-4.23Zm6.85,0v-4.46h4.23v4.46h-4.23Zm1.24-8.69v-3.82h5.2v3.82h-5.2Zm5.2,0v-3.82c.18,0,.34.05.46.14.12.09.21.21.28.37s.11.34.14.57c.03.23.05.5.05.81,0,.28-.02.54-.05.78-.03.25-.08.45-.14.62-.06.17-.15.3-.28.39-.12.09-.28.14-.46.14Z"/>
      <path d="m179.45,241.34c-.18,0-.34-.05-.46-.14-.12-.09-.21-.22-.28-.39-.06-.17-.11-.38-.14-.62-.03-.25-.05-.51-.05-.78,0-.4.02-.74.07-1.01.05-.28.14-.49.28-.64.14-.15.33-.23.58-.23v3.82Zm0,0v-3.82h5.47v3.82h-5.47Zm5.47,0v-32.84h4.28v32.84h-4.28Z"/>
      <path d="m203.51,251.87c-1.1,0-2.26-.08-3.47-.25-1.21-.17-2.54-.41-3.98-.71l.64-3.45c1.62.18,2.97.32,4.05.41,1.07.09,1.99.14,2.76.14,2.45,0,4.24-.46,5.36-1.38s1.68-2.25,1.68-4v-21.62l1.75,1.15h-7.22c-1.63,0-2.9.19-3.82.57-.92.38-1.56,1.14-1.93,2.25s-.55,2.75-.55,4.9.18,3.72.55,4.81c.37,1.09,1,1.83,1.91,2.23s2.19.6,3.84.6h5.47v3.82h-5.47c-2.67,0-4.77-.41-6.3-1.22-1.53-.81-2.63-2.07-3.29-3.77-.66-1.7-.99-3.86-.99-6.46s.33-4.81.99-6.53c.66-1.72,1.75-2.99,3.29-3.82,1.53-.83,3.63-1.24,6.3-1.24h9.75v24.29c0,1.96-.46,3.64-1.38,5.04-.92,1.39-2.22,2.45-3.91,3.17-1.69.72-3.7,1.08-6.03,1.08Z"/>
      <path d="m229.08,251.87c-1.1,0-2.26-.08-3.47-.25-1.21-.17-2.54-.41-3.98-.71l.64-3.45c1.62.18,2.97.32,4.05.41,1.07.09,1.99.14,2.76.14,2.45,0,4.24-.46,5.36-1.38,1.12-.92,1.68-2.25,1.68-4v-21.62l1.75,1.15h-7.22c-1.63,0-2.9.19-3.82.57-.92.38-1.56,1.14-1.93,2.25-.37,1.12-.55,2.75-.55,4.9s.18,3.72.55,4.81c.37,1.09,1,1.83,1.91,2.23s2.19.6,3.84.6h5.47v3.82h-5.47c-2.67,0-4.77-.41-6.3-1.22s-2.63-2.07-3.29-3.77c-.66-1.7-.99-3.86-.99-6.46s.33-4.81.99-6.53c.66-1.72,1.75-2.99,3.29-3.82s3.63-1.24,6.3-1.24h9.75v24.29c0,1.96-.46,3.64-1.38,5.04-.92,1.39-2.22,2.45-3.91,3.17-1.69.72-3.7,1.08-6.03,1.08Zm-2.9-37.72v-2.67h9.62v2.67h-9.62Zm2.53-.09c-.52-.64-.92-1.26-1.2-1.86-.28-.6-.41-1.23-.41-1.91,0-.92.24-1.75.71-2.48.48-.74,1.11-1.32,1.89-1.75.78-.43,1.62-.64,2.51-.64.52,0,1.04.08,1.56.23.52.15.98.35,1.38.6l-1.29,2.25c-.24-.15-.49-.25-.73-.3-.25-.05-.49-.07-.74-.07-.74,0-1.3.2-1.7.6-.4.4-.6.92-.6,1.56,0,.4.08.77.23,1.13.15.35.4.74.74,1.17l-2.35,1.47Zm11.68,27.28v-3.82h4.92v3.82h-4.92Zm4.92,0v-3.82c.18,0,.34.05.46.14.12.09.21.21.28.37.06.15.11.34.14.57.03.23.05.5.05.81,0,.28-.02.54-.05.78-.03.25-.08.45-.14.62-.06.17-.15.3-.28.39-.12.09-.28.14-.46.14Z"/>
      <path d="m245.32,241.34c-.18,0-.34-.05-.46-.14-.12-.09-.21-.22-.28-.39-.06-.17-.11-.38-.14-.62-.03-.25-.05-.51-.05-.78,0-.4.02-.74.07-1.01.05-.28.14-.49.28-.64.14-.15.33-.23.58-.23v3.82Zm0,0v-3.82h6.72l-1.06,1.06v-15.64h4.28v18.4h-9.94Zm9.94,0v-3.82h4.78c1.04,0,1.82-.15,2.35-.46.52-.31.89-.92,1.1-1.84.21-.92.32-2.27.32-4.05v-10.53h4.32v10.53c0,2.48-.28,4.48-.85,5.98s-1.43,2.58-2.6,3.22c-1.17.64-2.71.97-4.65.97h-4.78Zm15.04,0c-1.1,0-2.18-.21-3.24-.62-1.06-.41-2.06-1.07-3.01-1.96l2.71-2.85c.67.55,1.29.96,1.84,1.22.55.26,1.12.39,1.7.39h8.33l-1.89,1.84v-10.76c0-.55-.05-1.33-.16-2.32-.11-1-.26-2.13-.46-3.4s-.44-2.57-.71-3.89l4.19-.69c.21,1.1.43,2.32.64,3.63.21,1.32.4,2.58.55,3.77.15,1.2.23,2.16.23,2.9v12.74h-10.72Zm10.72,0v-3.82h4.92v3.82h-4.92Zm4.92,0v-3.82c.18,0,.34.05.46.14.12.09.21.21.28.37s.11.34.14.57c.03.23.05.5.05.81,0,.28-.02.54-.05.78-.03.25-.08.45-.14.62-.06.17-.15.3-.28.39-.12.09-.28.14-.46.14Z"/>
      <path d="m285.94,241.34c-.18,0-.34-.05-.46-.14-.12-.09-.21-.22-.28-.39-.06-.17-.11-.38-.14-.62-.03-.25-.05-.51-.05-.78,0-.4.02-.74.07-1.01.05-.28.14-.49.28-.64.14-.15.33-.23.58-.23v3.82Zm0,0v-3.82h24.79l-2.71,2.02v-9.52c0-2.02-.22-3.6-.67-4.74-.45-1.13-1.22-1.95-2.32-2.44-1.1-.49-2.61-.74-4.51-.74-1.29,0-2.56.09-3.82.28-1.26.18-2.24.43-2.94.74l2.62-2.58c-.18.71-.37,1.61-.55,2.71-.18,1.1-.34,2.29-.46,3.57-.12,1.27-.18,2.54-.18,3.79s.06,2.5.18,3.73c.12,1.23.26,2.3.41,3.22.15.92.28,1.55.37,1.89l-4.09,1.15c-.12-.4-.27-1.09-.44-2.07s-.32-2.16-.46-3.54c-.14-1.38-.21-2.84-.21-4.37s.07-2.97.21-4.39c.14-1.43.31-2.72.51-3.89.2-1.17.39-2.1.58-2.81.71-.28,1.8-.55,3.29-.83,1.49-.28,3.15-.41,4.99-.41,2.61,0,4.79.38,6.55,1.15,1.76.77,3.08,2,3.96,3.7.87,1.7,1.31,4,1.31,6.88v11.32h-26.4Zm26.4,0v-3.82h4.92v3.82h-4.92Zm4.92,0v-3.82c.18,0,.34.05.46.14.12.09.21.21.28.37s.11.34.14.57c.03.23.05.5.05.81,0,.28-.02.54-.05.78-.03.25-.08.45-.14.62-.06.17-.15.3-.28.39-.12.09-.28.14-.46.14Z"/>
      <path d="m317.26,241.34c-.18,0-.34-.05-.46-.14-.12-.09-.21-.22-.28-.39-.06-.17-.11-.38-.14-.62-.03-.25-.05-.51-.05-.78,0-.4.02-.74.07-1.01.05-.28.14-.49.28-.64.14-.15.33-.23.58-.23v3.82Zm0,0v-3.82h5.47v3.82h-5.47Zm5.47,0v-32.84h4.28v32.84h-4.28Z"/>
      <path d="m334.79,241.34v-32.84h4.28v32.84h-4.28Z"/>
      <path d="m355.3,241.34v-10.9c0-2.94.44-5.3,1.33-7.08.89-1.78,2.22-3.07,3.98-3.86,1.76-.8,3.95-1.2,6.55-1.2s4.83.4,6.58,1.2,3.07,2.08,3.96,3.86c.89,1.78,1.33,4.14,1.33,7.08v10.9h-23.74Zm4.28-1.93l-2.16-1.89h19.5l-2.16,1.89v-8.88c0-2.12-.22-3.79-.67-5.01-.44-1.23-1.23-2.09-2.35-2.6-1.12-.51-2.65-.76-4.58-.76s-3.45.25-4.55.76c-1.1.51-1.89,1.37-2.35,2.6-.46,1.23-.69,2.9-.69,5.01v8.88Zm2.07-25.25v-4.46h4.23v4.46h-4.23Zm6.85,0v-4.46h4.23v4.46h-4.23Z"/>
      <path d="m382.72,241.34v-3.82h17.02l-3.27,2.9v-9.43c0-2.24-.25-4-.76-5.29s-1.33-2.2-2.46-2.74c-1.13-.54-2.67-.8-4.6-.8h-3.73v-3.86h3.73c2.54,0,4.72.41,6.53,1.22,1.81.81,3.19,2.15,4.14,4,.95,1.86,1.43,4.35,1.43,7.48v10.35h-18.03Z"/>
      <path d="m414.14,251.87c-1.1,0-2.26-.08-3.47-.25-1.21-.17-2.54-.41-3.98-.71l.64-3.45c1.62.18,2.97.32,4.05.41s1.99.14,2.76.14c2.45,0,4.24-.46,5.36-1.38,1.12-.92,1.68-2.25,1.68-4v-21.62l1.75,1.15h-7.22c-1.63,0-2.9.19-3.82.57-.92.38-1.56,1.14-1.93,2.25s-.55,2.75-.55,4.9.18,3.72.55,4.81c.37,1.09,1,1.83,1.91,2.23.9.4,2.18.6,3.84.6h5.47v3.82h-5.47c-2.67,0-4.77-.41-6.3-1.22-1.53-.81-2.63-2.07-3.29-3.77-.66-1.7-.99-3.86-.99-6.46s.33-4.81.99-6.53c.66-1.72,1.75-2.99,3.29-3.82,1.53-.83,3.63-1.24,6.3-1.24h9.75v24.29c0,1.96-.46,3.64-1.38,5.04-.92,1.39-2.22,2.45-3.91,3.17-1.69.72-3.7,1.08-6.03,1.08Z"/>
      <path d="m430.7,241.34v-3.82h17.02l-3.27,2.9v-9.43c0-2.24-.25-4-.76-5.29s-1.33-2.2-2.46-2.74c-1.13-.54-2.67-.8-4.6-.8h-3.73v-3.86h3.73c2.54,0,4.72.41,6.53,1.22,1.81.81,3.19,2.15,4.14,4,.95,1.86,1.43,4.35,1.43,7.48v10.35h-18.03Zm18.03,0v-3.82h4.97v3.82h-4.97Zm4.97,0v-3.82c.15,0,.29.05.41.14.12.09.21.21.28.37.06.15.11.34.16.57.05.23.07.5.07.81,0,.28-.02.54-.07.78-.05.25-.1.45-.16.62-.06.17-.15.3-.28.39-.12.09-.26.14-.41.14Z"/>
      <path d="m453.7,241.34c-.18,0-.34-.05-.46-.14-.12-.09-.21-.22-.28-.39-.06-.17-.11-.38-.14-.62-.03-.25-.05-.51-.05-.78,0-.4.02-.74.07-1.01.05-.28.14-.49.28-.64.14-.15.33-.23.58-.23v3.82Zm0,0v-3.82h20.15l-1.38,1.15v-10.63c0-1.93-.61-3.39-1.82-4.37-1.21-.98-3.09-1.47-5.63-1.47-.77,0-1.86.06-3.29.18-1.43.12-2.94.31-4.53.55l-.46-3.5c1.26-.31,2.62-.57,4.09-.8,1.47-.23,2.9-.34,4.28-.34,2.39,0,4.45.38,6.19,1.15,1.73.77,3.07,1.88,4.03,3.34.95,1.46,1.43,3.21,1.43,5.27v13.29h-23.05Zm23.05,0v-3.82h4.97v3.82h-4.97Zm4.97,0v-3.82c.18,0,.33.05.44.14.11.09.2.21.28.37s.13.34.16.57c.03.23.05.5.05.81,0,.28-.02.54-.05.78-.03.25-.08.45-.16.62-.08.17-.17.3-.28.39-.11.09-.25.14-.44.14Z"/>
      <path d="m481.71,241.34c-.18,0-.34-.05-.46-.14-.12-.09-.21-.22-.28-.39-.06-.17-.11-.38-.14-.62-.03-.25-.05-.51-.05-.78,0-.4.02-.74.07-1.01.05-.28.14-.49.28-.64.14-.15.33-.23.58-.23v3.82Zm0,0v-3.82h24.79l-2.71,2.02v-9.52c0-2.02-.22-3.6-.67-4.74-.45-1.13-1.22-1.95-2.32-2.44-1.1-.49-2.61-.74-4.51-.74-1.29,0-2.56.09-3.82.28-1.26.18-2.24.43-2.94.74l2.62-2.58c-.18.71-.37,1.61-.55,2.71-.18,1.1-.34,2.29-.46,3.57-.12,1.27-.18,2.54-.18,3.79s.06,2.5.18,3.73c.12,1.23.26,2.3.41,3.22.15.92.28,1.55.37,1.89l-4.09,1.15c-.12-.4-.27-1.09-.44-2.07s-.32-2.16-.46-3.54c-.14-1.38-.21-2.84-.21-4.37s.07-2.97.21-4.39c.14-1.43.31-2.72.51-3.89.2-1.17.39-2.1.58-2.81.71-.28,1.8-.55,3.29-.83,1.49-.28,3.15-.41,4.99-.41,2.61,0,4.79.38,6.55,1.15,1.76.77,3.08,2,3.96,3.7.87,1.7,1.31,4,1.31,6.88v11.32h-26.4Z"/>
      <path d="m533.97,241.34c-2.67,0-4.77-.41-6.3-1.22-1.53-.81-2.63-2.07-3.29-3.77-.66-1.7-.99-3.86-.99-6.46s.33-4.81.99-6.53c.66-1.72,1.75-2.99,3.29-3.82,1.53-.83,3.63-1.24,6.3-1.24h9.75v20.93h-4.28v-18.58l1.75,1.52h-7.22c-1.63,0-2.9.19-3.82.57-.92.38-1.56,1.14-1.93,2.25s-.55,2.75-.55,4.9.18,3.72.55,4.81c.37,1.09,1,1.83,1.91,2.23.9.4,2.18.6,3.84.6h14.67v3.82h-14.67Zm-5.15-27.19v-4.46h4.23v4.46h-4.23Zm6.85,0v-4.46h4.23v4.46h-4.23Zm12.97,27.19v-3.82c.18,0,.34.05.46.14.12.09.21.21.28.37.06.15.11.34.14.57.03.23.05.5.05.81,0,.28-.02.54-.05.78-.03.25-.08.45-.14.62-.06.17-.15.3-.28.39-.12.09-.28.14-.46.14Z"/>
      <path d="m548.64,241.34c-.18,0-.34-.05-.46-.14-.12-.09-.21-.22-.28-.39-.06-.17-.11-.38-.14-.62-.03-.25-.05-.51-.05-.78,0-.4.02-.74.07-1.01.05-.28.14-.49.28-.64.14-.15.33-.23.58-.23v3.82Zm0,0v-3.82h24.79l-2.71,2.02v-9.52c0-2.02-.22-3.6-.67-4.74-.45-1.13-1.22-1.95-2.32-2.44-1.1-.49-2.61-.74-4.51-.74-1.29,0-2.56.09-3.82.28-1.26.18-2.24.43-2.94.74l2.62-2.58c-.18.71-.37,1.61-.55,2.71-.18,1.1-.34,2.29-.46,3.57-.12,1.27-.18,2.54-.18,3.79s.06,2.5.18,3.73c.12,1.23.26,2.3.41,3.22.15.92.28,1.55.37,1.89l-4.09,1.15c-.12-.4-.27-1.09-.44-2.07s-.32-2.16-.46-3.54c-.14-1.38-.21-2.84-.21-4.37s.07-2.97.21-4.39c.14-1.43.31-2.72.51-3.89.2-1.17.39-2.1.58-2.81.71-.28,1.8-.55,3.29-.83,1.49-.28,3.15-.41,4.99-.41,2.61,0,4.79.38,6.55,1.15,1.76.77,3.08,2,3.96,3.7.87,1.7,1.31,4,1.31,6.88v11.32h-26.4Z"/>
      <path d="m582.73,241.34v-32.84h4.28v32.84h-4.28Zm4.28,0v-3.82h5.52v3.82h-5.52Zm5.52,0v-3.82c.15,0,.29.05.41.14.12.09.21.21.28.37s.12.34.16.57c.05.23.07.5.07.81,0,.28-.02.54-.07.78-.05.25-.1.45-.16.62-.06.17-.15.3-.28.39-.12.09-.26.14-.41.14Z"/>
      <path d="m592.53,241.34c-.18,0-.34-.05-.46-.14-.12-.09-.21-.22-.28-.39-.06-.17-.11-.38-.14-.62-.03-.25-.05-.51-.05-.78,0-.4.02-.74.07-1.01.05-.28.14-.49.28-.64.14-.15.33-.23.58-.23v3.82Zm0,0v-3.82h7.18c1.69,0,3.3-.29,4.85-.87,1.55-.58,2.98-1.35,4.3-2.3,1.32-.95,2.46-2.01,3.43-3.17.97-1.17,1.73-2.35,2.28-3.54s.83-2.33.83-3.4v-2.81l2.21,3.45c-1.75-.92-3.47-1.6-5.18-2.05-1.7-.44-3.35-.67-4.94-.67s-3.2.22-4.9.67-3.41,1.13-5.13,2.05l2.21-3.45v2.81c0,1.07.28,2.21.83,3.4s1.3,2.38,2.25,3.54c.95,1.17,2.08,2.22,3.4,3.17,1.32.95,2.75,1.72,4.3,2.3,1.55.58,3.17.87,4.85.87h6.9v3.82h-6.35c-2.39,0-4.63-.38-6.72-1.15-2.09-.77-3.97-1.79-5.66-3.06-1.69-1.27-3.14-2.67-4.35-4.19-1.21-1.52-2.14-3.04-2.78-4.55-.64-1.52-.97-2.91-.97-4.16v-2.71c1.32-.71,2.67-1.29,4.05-1.77,1.38-.48,2.76-.84,4.14-1.08s2.68-.37,3.91-.37c1.29,0,2.61.12,3.96.37,1.35.25,2.72.61,4.12,1.08,1.39.48,2.75,1.07,4.07,1.77v2.71c0,1.26-.32,2.65-.97,4.16-.64,1.52-1.57,3.04-2.78,4.55-1.21,1.52-2.66,2.91-4.35,4.19s-3.57,2.29-5.66,3.06c-2.09.77-4.32,1.15-6.72,1.15h-6.62Zm29.67,0v-3.82c.18,0,.34.05.46.14.12.09.21.21.28.37.06.15.11.34.14.57.03.23.05.5.05.81,0,.28-.02.54-.05.78-.03.25-.08.45-.14.62-.06.17-.15.3-.28.39-.12.09-.28.14-.46.14Z"/>
      <path d="m622.2,241.34c-.18,0-.34-.05-.46-.14-.12-.09-.21-.22-.28-.39-.06-.17-.11-.38-.14-.62-.03-.25-.05-.51-.05-.78,0-.4.02-.74.07-1.01.05-.28.14-.49.28-.64.14-.15.33-.23.58-.23v3.82Zm0,0v-3.82h5.47v3.82h-5.47Zm5.47,0v-32.84h4.28v32.84h-4.28Z"/>
      <path d="m639.72,241.34v-32.84h4.28v32.84h-4.28Z"/>
      <path d="m660.24,241.34v-10.9c0-2.94.44-5.3,1.33-7.08.89-1.78,2.22-3.07,3.98-3.86,1.76-.8,3.95-1.2,6.55-1.2s4.83.4,6.58,1.2,3.07,2.08,3.96,3.86c.89,1.78,1.33,4.14,1.33,7.08v10.9h-23.74Zm4.28-1.93l-2.16-1.89h19.5l-2.16,1.89v-8.88c0-2.12-.22-3.79-.67-5.01-.44-1.23-1.23-2.09-2.35-2.6-1.12-.51-2.65-.76-4.58-.76s-3.45.25-4.55.76c-1.1.51-1.89,1.37-2.35,2.6-.46,1.23-.69,2.9-.69,5.01v8.88Zm2.07-25.25v-4.46h4.23v4.46h-4.23Zm6.85,0v-4.46h4.23v4.46h-4.23Z"/>
      <path d="m686.6,251.87c-.4,0-.82-.02-1.27-.07-.44-.05-.9-.08-1.36-.12l.37-3.82c.46.03.88.06,1.26.09.38.03.7.05.94.05,1.38,0,2.49-.52,3.33-1.56.84-1.04,1.26-2.5,1.26-4.37v-23.78h4.32v23.78c0,1.93-.38,3.63-1.15,5.11-.77,1.47-1.81,2.62-3.13,3.45s-2.85,1.24-4.6,1.24Z"/>
      <path d="m702.97,241.34v-32.84h4.28v32.84h-4.28Zm4.28,0v-3.82h5.52v3.82h-5.52Zm5.52,0v-3.82c.15,0,.29.05.41.14.12.09.21.21.28.37s.12.34.16.57c.05.23.07.5.07.81,0,.28-.02.54-.07.78-.05.25-.1.45-.16.62-.06.17-.15.3-.28.39-.12.09-.26.14-.41.14Z"/>
      <path d="m712.77,241.34c-.18,0-.34-.05-.46-.14-.12-.09-.21-.22-.28-.39-.06-.17-.11-.38-.14-.62-.03-.25-.05-.51-.05-.78,0-.4.02-.74.07-1.01.05-.28.14-.49.28-.64.14-.15.33-.23.58-.23v3.82Zm0,0v-3.82h20.15l-1.38,1.15v-10.63c0-1.93-.61-3.39-1.82-4.37-1.21-.98-3.09-1.47-5.63-1.47-.77,0-1.86.06-3.29.18-1.43.12-2.94.31-4.53.55l-.46-3.5c1.26-.31,2.62-.57,4.09-.8,1.47-.23,2.9-.34,4.28-.34,2.39,0,4.45.38,6.19,1.15,1.73.77,3.07,1.88,4.03,3.34.95,1.46,1.43,3.21,1.43,5.27v13.29h-23.05Zm9.52,8.69v-4.46h4.32v4.46h-4.32Zm13.52-8.69v-3.82h4.97v3.82h-4.97Zm4.97,0v-3.82c.18,0,.33.05.44.14.11.09.2.21.28.37s.13.34.16.57c.03.23.05.5.05.81,0,.28-.02.54-.05.78-.03.25-.08.45-.16.62-.08.17-.17.3-.28.39-.11.09-.25.14-.44.14Z"/>
      <path d="m740.79,241.34c-.18,0-.34-.05-.46-.14-.12-.09-.21-.22-.28-.39-.06-.17-.11-.38-.14-.62-.03-.25-.05-.51-.05-.78,0-.4.02-.74.07-1.01.05-.28.14-.49.28-.64.14-.15.33-.23.58-.23v3.82Zm0,0v-3.82h7.82l-2.21,1.75v-20.98h4.28v23.05h-9.89Zm2.21-27.19v-4.46h4.23v4.46h-4.23Zm6.85,0v-4.46h4.23v4.46h-4.23Zm.83,27.19v-3.82h5.2v3.82h-5.2Zm5.2,0v-3.82c.18,0,.34.05.46.14.12.09.21.21.28.37.06.15.11.34.14.57.03.23.05.5.05.81,0,.28-.02.54-.05.78-.03.25-.08.45-.14.62-.06.17-.15.3-.28.39-.12.09-.28.14-.46.14Z"/>
      <path d="m755.87,241.34c-.18,0-.34-.05-.46-.14-.12-.09-.21-.22-.28-.39-.06-.17-.11-.38-.14-.62-.03-.25-.05-.51-.05-.78,0-.4.02-.74.07-1.01.05-.28.14-.49.28-.64.14-.15.33-.23.58-.23v3.82Zm0,0v-3.82h5.47v3.82h-5.47Zm5.47,0v-32.84h4.28v32.84h-4.28Zm4.28,0v-3.82h4.97v3.82h-4.97Zm4.97,0v-3.82c.15,0,.29.05.41.14.12.09.21.21.28.37.06.15.12.34.16.57.05.23.07.5.07.81,0,.28-.02.54-.07.78-.05.25-.1.45-.16.62-.06.17-.15.3-.28.39-.12.09-.26.14-.41.14Z"/>
      <path d="m770.59,241.34c-.18,0-.34-.05-.46-.14-.12-.09-.21-.22-.28-.39-.06-.17-.11-.38-.14-.62-.03-.25-.05-.51-.05-.78,0-.4.02-.74.07-1.01.05-.28.14-.49.28-.64.14-.15.33-.23.58-.23v3.82Zm0,0v-3.82h5.47v3.82h-5.47Zm5.47,0v-32.84h4.28v32.84h-4.28Z"/>
    </g>
  </g>
  <path class="cls-1" d="m212.74,126.23l-9.52,8.4c-3.34-4.65-6.74-6.97-10.21-6.97-1.69,0-3.07.45-4.14,1.35-1.07.9-1.61,1.92-1.61,3.05s.38,2.2,1.15,3.21c1.04,1.34,4.18,4.24,9.43,8.67,4.9,4.1,7.88,6.69,8.92,7.75,2.6,2.63,4.45,5.15,5.54,7.55,1.09,2.4,1.63,5.02,1.63,7.87,0,5.54-1.91,10.11-5.74,13.72-3.83,3.61-8.82,5.41-14.98,5.41-4.81,0-9-1.18-12.57-3.53-3.57-2.36-6.62-6.06-9.17-11.11l10.8-6.52c3.25,5.97,6.99,8.95,11.22,8.95,2.21,0,4.06-.64,5.56-1.93,1.5-1.29,2.25-2.77,2.25-4.45,0-1.53-.57-3.06-1.7-4.59-1.13-1.53-3.63-3.87-7.49-7.02-7.36-6-12.11-10.62-14.25-13.88-2.15-3.26-3.22-6.51-3.22-9.75,0-4.68,1.78-8.7,5.35-12.05,3.57-3.35,7.97-5.02,13.21-5.02,3.37,0,6.58.78,9.63,2.34,3.05,1.56,6.35,4.4,9.9,8.53Zm16.94-12.16c2.2,0,4.08.8,5.65,2.39,1.57,1.59,2.36,3.52,2.36,5.78s-.78,4.14-2.33,5.71c-1.56,1.57-3.42,2.36-5.58,2.36s-4.13-.8-5.7-2.41c-1.57-1.61-2.36-3.56-2.36-5.85s.78-4.09,2.33-5.65c1.56-1.56,3.43-2.34,5.63-2.34Zm-6.27,20.56h12.53v49.93h-12.53v-49.93Zm22.53-19.27h12.53v69.2h-12.53v-69.2Zm54.5,26.25l-7.76,7.76c-3.15-3.12-6.01-4.68-8.58-4.68-1.41,0-2.51.3-3.3.89-.8.6-1.19,1.34-1.19,2.23,0,.67.25,1.29.76,1.86.5.57,1.75,1.34,3.74,2.32l4.59,2.29c4.83,2.39,8.15,4.82,9.96,7.3,1.81,2.48,2.71,5.38,2.71,8.72,0,4.44-1.63,8.14-4.89,11.11-3.26,2.97-7.63,4.45-13.1,4.45-7.28,0-13.1-2.84-17.44-8.54l7.71-8.4c1.47,1.71,3.19,3.1,5.16,4.15,1.97,1.05,3.73,1.58,5.26,1.58,1.65,0,2.98-.4,3.99-1.19,1.01-.8,1.51-1.71,1.51-2.75,0-1.93-1.82-3.81-5.46-5.64l-4.22-2.11c-8.08-4.07-12.12-9.16-12.12-15.28,0-3.95,1.52-7.32,4.57-10.12,3.04-2.8,6.94-4.2,11.68-4.2,3.24,0,6.3.71,9.16,2.13,2.86,1.42,5.29,3.46,7.28,6.13Zm15.66-27.53c2.2,0,4.08.8,5.65,2.39,1.57,1.59,2.36,3.52,2.36,5.78s-.78,4.14-2.33,5.71c-1.56,1.57-3.42,2.36-5.58,2.36s-4.13-.8-5.7-2.41c-1.57-1.61-2.36-3.56-2.36-5.85s.78-4.09,2.33-5.65c1.56-1.56,3.43-2.34,5.63-2.34Zm-6.27,20.56h12.53v49.93h-12.53v-49.93Zm22.56-19.27h12.53v69.2h-12.53v-69.2Zm60.76,19.27h12.53v49.93h-12.53v-5.28c-2.45,2.32-4.9,4-7.36,5.02-2.46,1.02-5.13,1.54-8,1.54-6.45,0-12.03-2.5-16.73-7.5-4.71-5-7.06-11.22-7.06-18.65s2.28-14.03,6.83-18.95c4.55-4.93,10.09-7.39,16.6-7.39,2.99,0,5.81.57,8.43,1.7,2.63,1.13,5.06,2.83,7.29,5.09v-5.51Zm-13.17,10.28c-3.87,0-7.09,1.37-9.65,4.11-2.56,2.74-3.84,6.25-3.84,10.53s1.3,7.86,3.91,10.65c2.61,2.78,5.82,4.18,9.63,4.18s7.2-1.37,9.79-4.11,3.89-6.33,3.89-10.76-1.3-7.86-3.89-10.55c-2.59-2.69-5.87-4.04-9.83-4.04Zm39.88-28.68h12.53v18.4h7.44v10.78h-7.44v39.14h-12.53v-39.14h-6.43v-10.78h6.43v-18.4Zm74.95.83h13.03l25.97,67.5h-13.36l-5.28-13.91h-27.55l-5.49,13.91h-13.36l26.04-67.5Zm6.6,17.9l-9.06,23.17h18.06l-9-23.17Zm42.33-17.9h12.85v55.25h18.73v12.25h-31.58v-67.5Zm44.88-2.98c2.2,0,4.08.8,5.65,2.39,1.57,1.59,2.36,3.52,2.36,5.78s-.78,4.14-2.33,5.71c-1.56,1.58-3.42,2.36-5.58,2.36s-4.13-.8-5.7-2.41c-1.57-1.61-2.36-3.56-2.36-5.85s.78-4.08,2.33-5.65c1.56-1.56,3.43-2.34,5.63-2.34Zm-6.27,20.56h12.53v49.93h-12.53v-49.93Zm36.35-19.27v24.78c2.26-2.26,4.71-3.96,7.34-5.09,2.63-1.13,5.45-1.7,8.45-1.7,6.52,0,12.06,2.46,16.62,7.39,4.56,4.93,6.84,11.24,6.84,18.95s-2.36,13.65-7.07,18.65c-4.71,5-10.3,7.5-16.75,7.5-2.88,0-5.55-.51-8.03-1.54-2.48-1.02-4.94-2.7-7.39-5.02v5.28h-12.44v-69.2h12.44Zm13.17,29.55c-3.95,0-7.22,1.35-9.82,4.04-2.6,2.69-3.9,6.21-3.9,10.55s1.3,8.02,3.9,10.76c2.6,2.74,5.88,4.11,9.82,4.11s7.05-1.39,9.66-4.18c2.62-2.78,3.92-6.33,3.92-10.65s-1.29-7.79-3.86-10.53c-2.57-2.74-5.81-4.11-9.73-4.11Zm73.3-29.55h12.53v69.2h-12.53v-5.28c-2.45,2.32-4.9,4-7.36,5.02-2.46,1.02-5.13,1.54-8,1.54-6.45,0-12.03-2.5-16.73-7.5-4.71-5-7.06-11.22-7.06-18.65s2.28-14.03,6.83-18.95c4.55-4.93,10.09-7.39,16.6-7.39,2.99,0,5.81.57,8.43,1.7,2.63,1.13,5.06,2.83,7.29,5.09v-24.78Zm-13.17,29.55c-3.87,0-7.09,1.37-9.65,4.11-2.56,2.74-3.84,6.25-3.84,10.53s1.3,7.86,3.91,10.65c2.61,2.78,5.82,4.18,9.63,4.18s7.2-1.37,9.79-4.11c2.59-2.74,3.89-6.33,3.89-10.76s-1.3-7.86-3.89-10.55-5.87-4.04-9.83-4.04Zm75.25-10.28h12.53v49.93h-12.53v-5.28c-2.45,2.33-4.9,4-7.36,5.02-2.46,1.02-5.13,1.54-8,1.54-6.45,0-12.03-2.5-16.73-7.5-4.71-5-7.06-11.22-7.06-18.65s2.28-14.03,6.83-18.95c4.55-4.93,10.09-7.39,16.6-7.39,2.99,0,5.81.57,8.43,1.7,2.63,1.13,5.06,2.83,7.29,5.09v-5.51Zm-13.17,10.28c-3.87,0-7.09,1.37-9.65,4.11-2.56,2.74-3.84,6.25-3.84,10.53s1.3,7.86,3.91,10.65c2.61,2.78,5.82,4.18,9.63,4.18s7.2-1.37,9.79-4.11c2.59-2.74,3.89-6.32,3.89-10.76s-1.3-7.86-3.89-10.55c-2.59-2.69-5.87-4.04-9.83-4.04Z"/>
</svg>